<?xml version="1.0" standalone="no"?>
<!DOCTYPE svg PUBLIC "-//W3C//DTD SVG 20010904//EN"
 "http://www.w3.org/TR/2001/REC-SVG-20010904/DTD/svg10.dtd">
<svg version="1.0" xmlns="http://www.w3.org/2000/svg"
 width="215.000000pt" height="215.000000pt" viewBox="0 0 215.000000 215.000000"
 preserveAspectRatio="xMidYMid meet">
<metadata>
Created by potrace 1.14, written by Peter Selinger 2001-2017
</metadata>
<g transform="translate(0.000000,215.000000) scale(0.100000,-0.100000)"
fill="#000000" stroke="none">
<path d="M970 2118 c-248 -24 -502 -150 -668 -333 -116 -127 -200 -281 -241
-443 -177 -692 361 -1348 1073 -1308 255 14 488 118 668 298 92 92 105 107
152 182 78 122 119 228 154 401 3 17 6 95 5 175 -1 171 -26 289 -94 430 -61
128 -100 183 -207 294 -218 223 -525 334 -842 304z"/>
</g>
</svg>
