<?xml version="1.0" encoding="UTF-8" standalone="no"?>
<!DOCTYPE svg PUBLIC "-//W3C//DTD SVG 1.1//EN" "http://www.w3.org/Graphics/SVG/1.1/DTD/svg11.dtd">
<svg width="100%" height="100%" viewBox="0 0 23 23" version="1.1" xmlns="http://www.w3.org/2000/svg" xmlns:xlink="http://www.w3.org/1999/xlink" xml:space="preserve" xmlns:serif="http://www.serif.com/" style="fill-rule:evenodd;clip-rule:evenodd;stroke-linejoin:round;stroke-miterlimit:2;">
    <g transform="matrix(1,0,0,1,1.04457,1.4602)">
        <path d="M-0.047,10.418L-0.047,10.414C-0.416,9.398 -0.822,8.179 -0.865,7.789C-0.995,6.621 -0.335,5.728 0.911,5.24C0.967,5.218 1.024,5.196 1.081,5.177C2.867,1.589 6.571,-0.879 10.848,-0.879C14.266,-0.879 17.318,0.697 19.317,3.161L19.451,3.179C20.775,3.384 21.614,4.11 21.745,5.277C21.787,5.651 21.672,6.842 21.541,7.885C21.679,8.576 21.751,9.291 21.751,10.023C21.751,16.04 16.865,20.926 10.848,20.926C4.963,20.926 0.162,16.253 -0.047,10.418Z"/>
    </g>
</svg>
