<?xml version="1.0" encoding="UTF-8" standalone="no"?><!DOCTYPE svg PUBLIC "-//W3C//DTD SVG 1.1//EN" "http://www.w3.org/Graphics/SVG/1.1/DTD/svg11.dtd"><svg width="100%" height="100%" viewBox="0 0 934 934" version="1.1" xmlns="http://www.w3.org/2000/svg" xmlns:xlink="http://www.w3.org/1999/xlink" xml:space="preserve" xmlns:serif="http://www.serif.com/" style="fill-rule:evenodd;clip-rule:evenodd;stroke-linejoin:round;stroke-miterlimit:2;"><rect id="Shape-UserLinkedin" x="1.559" y="0.698" width="931.25" height="931.25" style="fill:none;"/><path d="M342.705,385.227l-0,321.659c-0,9.204 -7.462,16.666 -16.667,16.666l-106.311,0c-9.204,0 -16.666,-7.462 -16.666,-16.666l-0,-321.659c-0,-9.205 7.462,-16.666 16.666,-16.666l106.311,-0c9.205,-0 16.667,7.461 16.667,16.666Zm-33.333,16.667l-72.978,-0l0,288.325l72.978,0l-0,-288.325Zm201.28,117.781l0,187.211c0,9.204 -7.462,16.666 -16.666,16.666l-106.311,0c-9.205,0 -16.667,-7.462 -16.667,-16.666l0,-321.659c0,-9.205 7.462,-16.666 16.667,-16.666l106.311,-0c9.204,-0 16.666,7.461 16.666,16.666l0.001,1.737c10.41,-5.684 22.753,-10.415 36.413,-13.606c44.15,-10.313 101.032,-5.771 139.562,26.072c26.22,21.668 44.718,55.784 44.679,107.113c-0.041,53.623 -0,200.338 -0,200.338c0.001,4.421 -1.755,8.662 -4.88,11.788c-3.126,3.127 -7.366,4.883 -11.787,4.883l-106.311,0c-9.205,0 -16.667,-7.462 -16.667,-16.666l-0.001,-186.972c-1.078,-29.22 -21.076,-44.451 -41.491,-44.455c-20.227,-0.004 -39.518,15.155 -39.518,44.216Zm-33.333,0c-0,-52.144 36.564,-77.556 72.857,-77.55c36.034,0.007 73.137,25.266 74.811,77.011c0.006,0.18 0.009,0.359 0.009,0.539l-0,170.544l72.973,0c-0.009,-39.981 -0.028,-141.148 0.004,-183.701c0.03,-38.775 -12.773,-65.025 -32.579,-81.394c-30.508,-25.212 -75.788,-27.472 -110.745,-19.306c-12.267,2.865 -23.289,7.049 -31.89,12.221c-6.337,3.81 -11.398,7.792 -13.397,12.574c-3.063,7.326 -10.87,11.473 -18.655,9.911c-7.786,-1.562 -13.388,-8.4 -13.388,-16.341l-0,-22.289l-72.978,-0l0,288.325l72.978,0l-0,-170.544Zm-204.436,-310.581c38.536,0 69.822,31.287 69.822,69.822c-0,38.536 -31.286,69.822 -69.822,69.822c-38.536,0 -69.822,-31.286 -69.822,-69.822c-0,-38.535 31.286,-69.822 69.822,-69.822Zm-0,33.334c-20.139,-0 -36.489,16.35 -36.489,36.488c0,20.139 16.35,36.489 36.489,36.489c20.138,0 36.489,-16.35 36.489,-36.489c-0,-20.138 -16.351,-36.488 -36.489,-36.488Z"/></svg>