<?xml version="1.0" encoding="UTF-8" standalone="no"?><!DOCTYPE svg PUBLIC "-//W3C//DTD SVG 1.1//EN" "http://www.w3.org/Graphics/SVG/1.1/DTD/svg11.dtd"><svg width="100%" height="100%" viewBox="0 0 934 934" version="1.1" xmlns="http://www.w3.org/2000/svg" xmlns:xlink="http://www.w3.org/1999/xlink" xml:space="preserve" xmlns:serif="http://www.serif.com/" style="fill-rule:evenodd;clip-rule:evenodd;stroke-linejoin:round;stroke-miterlimit:2;"><rect id="Shape-UserPhone" x="1.181" y="0.698" width="931.25" height="931.25" style="fill:none;"/><path d="M464.133,220.952c-9.194,-0.289 -16.424,-7.988 -16.135,-17.182c0.289,-9.194 7.988,-16.424 17.182,-16.135c152.55,4.795 275.52,127.764 280.315,280.314c0.289,9.194 -6.941,16.893 -16.135,17.182c-9.194,0.289 -16.893,-6.94 -17.182,-16.134c-4.243,-134.989 -113.056,-243.803 -248.045,-248.045Zm15.836,94.784c-9.086,-1.43 -15.303,-9.967 -13.874,-19.054c1.429,-9.087 9.967,-15.304 19.054,-13.875c84.787,13.336 151.837,80.387 165.173,165.174c1.43,9.087 -4.787,17.624 -13.874,19.054c-9.087,1.429 -17.625,-4.788 -19.054,-13.875c-11.096,-70.543 -66.882,-126.329 -137.425,-137.424Zm-143.612,281.318c-22.632,-22.952 -93.61,-95.646 -129.842,-172.44c-24.099,-51.076 -32.368,-103.972 -8.578,-147.592c15.804,-28.977 46.001,-54.769 97.771,-72.433c11.645,-3.973 26.409,-1.934 41.938,7.618c23.353,14.365 51.315,47.576 70.612,79.465c13.466,22.254 22.589,43.933 24.569,58.09c0.845,6.037 0.6,11.27 -0.344,15.523l-1.959,5.99l-3.69,6.134c-10.008,12.684 -17.944,23.409 -23.148,33.389c-3.75,7.191 -5.984,13.697 -5.592,20.502c0.998,17.318 15.278,34.388 42.557,61.667c27.278,27.278 44.349,41.558 61.666,42.556c6.805,0.392 13.311,-1.842 20.502,-5.592c9.98,-5.204 20.705,-13.14 33.389,-23.148l6.277,-3.743l9.019,-2.402c5.035,-0.606 11.406,-0.184 18.737,1.694c18.654,4.78 47.34,20.421 73.593,39.768c26.544,19.561 50.41,42.899 60.32,61.081c7.356,13.493 8.166,25.805 4.707,35.2c-18.844,51.174 -45.237,81.038 -74.52,96.653c-44.174,23.557 -96.826,15.25 -147.387,-8.66c-76.112,-35.993 -147.433,-106.476 -170.39,-129.113l-0.207,-0.207Zm352.546,29.227c-0.772,-1.66 -2.681,-5.602 -4.576,-8.265c-9.555,-13.432 -26.801,-28.806 -45.212,-42.374c-20.819,-15.342 -53.933,-29.894 -61.147,-32.985c-31.126,24.054 -54.359,35.829 -78.049,34.464c-24.091,-1.389 -50.783,-16.743 -88.731,-54.692c-37.949,-37.948 -53.303,-64.64 -54.691,-88.731c-1.37,-23.753 10.473,-47.048 34.658,-78.301c-1.996,-5.933 -9.397,-27.035 -18.545,-42.154c-13.736,-22.7 -32.319,-46.586 -49.61,-60.42c-3.698,-2.96 -7.274,-5.414 -10.707,-7.075c-1.247,-0.604 -3.293,-1.21 -4.024,-1.418c-38.409,13.254 -61.956,31.015 -73.752,52.642c-17.747,32.541 -8.296,71.76 9.681,109.862c33.831,71.706 100.452,139.286 121.727,160.863c21.572,21.273 87.813,87.421 158.841,121.009c37.802,17.877 76.943,27.175 109.969,9.563c21.74,-11.593 40.011,-34.584 54.168,-71.988Z"/></svg>