<?xml version="1.0" encoding="UTF-8" standalone="no"?><!DOCTYPE svg PUBLIC "-//W3C//DTD SVG 1.1//EN" "http://www.w3.org/Graphics/SVG/1.1/DTD/svg11.dtd"><svg width="100%" height="100%" viewBox="0 0 934 932" version="1.1" xmlns="http://www.w3.org/2000/svg" xmlns:xlink="http://www.w3.org/1999/xlink" xml:space="preserve" xmlns:serif="http://www.serif.com/" style="fill-rule:evenodd;clip-rule:evenodd;stroke-linejoin:round;stroke-miterlimit:2;"><rect id="Shape-NavMinimize" x="1.421" y="0" width="931.25" height="931.25" style="fill:none;"/><path d="M696.004,687.925l0,72.246c0,17.259 -13.991,31.25 -31.25,31.25l-500.123,0c-17.259,0 -31.25,-13.991 -31.25,-31.25l-0,-485.596c-0,-17.259 13.991,-31.25 31.25,-31.25l73.457,-0l-0,-72.246c-0,-17.259 13.991,-31.25 31.25,-31.25l500.123,-0c17.259,-0 31.25,13.991 31.25,31.25l0,485.596c0,17.259 -13.991,31.25 -31.25,31.25l-73.457,0Zm-426.666,-382.1l-73.457,-0l-0,423.096l437.623,0l0,-72.246l0,-350.85l-364.166,-0Zm426.666,319.6l42.207,0l0,-423.096l-437.623,-0l-0,40.996l364.166,-0c17.259,-0 31.25,13.991 31.25,31.25l0,350.85Z"/></svg>