<?xml version="1.0" encoding="UTF-8" standalone="no"?><!DOCTYPE svg PUBLIC "-//W3C//DTD SVG 1.1//EN" "http://www.w3.org/Graphics/SVG/1.1/DTD/svg11.dtd"><svg width="100%" height="100%" viewBox="0 0 934 932" version="1.1" xmlns="http://www.w3.org/2000/svg" xmlns:xlink="http://www.w3.org/1999/xlink" xml:space="preserve" xmlns:serif="http://www.serif.com/" style="fill-rule:evenodd;clip-rule:evenodd;stroke-linejoin:round;stroke-miterlimit:2;"><rect id="Shape-AvDancer" x="0.093" y="0" width="931.25" height="931.25" style="fill:none;"/><path d="M484.799,-0l-0,238.529c132.759,7.565 238.235,117.764 238.235,252.404c0,139.534 -113.284,252.818 -252.819,252.818c-79.669,0 -150.78,-36.93 -197.134,-94.591c4.873,-20.545 14.909,-37.387 29.362,-43.998l5.625,-3.629l35.115,-0c-7.808,-29.209 -12.654,-61.675 -13.729,-96.017l-56.084,0c-0.875,-3.519 -1.597,-7.151 -2.162,-10.864l-3.64,-10.594l-6.314,-7.709l68.2,0c1.075,-34.342 5.921,-66.807 13.729,-96.016l-67.364,-0c-15.258,26.741 -25.158,56.927 -28.233,89.092l-7.272,-1.324l-11.021,2.006l-9.347,5.544l-2.243,2.737c6.311,-128.88 109.317,-232.53 237.929,-239.859l0,-238.529l29.167,-0Zm-0,712.611c17.91,-4.887 34.193,-18.578 48.236,-37.983c9.031,-12.48 17.069,-27.28 23.893,-43.929l-72.129,0l-0,81.912Zm-101.296,-81.912c6.824,16.649 14.862,31.449 23.893,43.929c14.043,19.405 30.326,33.096 48.236,37.983l0,-81.912l-72.129,0Zm167.047,69.001c37.23,-14.352 69.668,-38.382 94.223,-69.001l-56.688,0c-8.584,23.54 -19.24,44.194 -31.422,61.027c-1.996,2.759 -4.034,5.418 -6.113,7.974Zm16.525,-98.167c8.399,-28.763 13.583,-61.353 14.724,-96.017l-97,0l-0,96.017l82.276,-0Zm97.537,-0c16.348,-28.652 26.545,-61.259 28.787,-96.017l-82.422,0c-1.075,34.342 -5.921,66.808 -13.729,96.017l67.364,-0Zm28.787,-125.184c-2.242,-34.758 -12.439,-67.365 -28.787,-96.016l-67.364,-0c7.808,29.209 12.654,61.674 13.729,96.016l82.422,0Zm-136.471,-125.183c-6.824,-16.649 -14.862,-31.448 -23.893,-43.928c-14.043,-19.406 -30.326,-33.097 -48.236,-37.984l-0,81.912l72.129,0Zm-198.296,154.35c1.141,34.664 6.325,67.254 14.724,96.017l82.276,-0l0,-96.017l-97,0Zm31.249,-223.351c-37.23,14.352 -69.668,38.383 -94.223,69.001l56.688,0c8.584,-23.539 19.24,-44.194 31.422,-61.027c1.996,-2.758 4.034,-5.417 6.113,-7.974Zm65.751,-12.911c-17.91,4.887 -34.193,18.578 -48.236,37.984c-9.031,12.48 -17.069,27.279 -23.893,43.928l72.129,0l0,-81.912Zm189.141,81.912c-24.555,-30.618 -56.993,-54.649 -94.223,-69.001c2.079,2.557 4.117,5.216 6.113,7.974c12.182,16.833 22.838,37.488 31.422,61.027l56.688,0Zm-271.417,29.167c-8.399,28.763 -13.583,61.352 -14.724,96.016l97,0l0,-96.016l-82.276,-0Zm208.443,96.016c-1.141,-34.664 -6.325,-67.253 -14.724,-96.016l-82.276,-0l-0,96.016l97,0Zm-286.141,154.35c24.555,30.619 56.993,54.649 94.223,69.001c-2.079,-2.556 -4.117,-5.215 -6.113,-7.974c-12.182,-16.833 -22.838,-37.487 -31.422,-61.027l-56.688,0Zm-94.471,-375.481c-0.557,4.538 -1.85,9.063 -3.938,13.41c-10.309,21.464 -36.104,30.521 -57.567,20.212c-21.464,-10.308 -30.521,-36.103 -20.213,-57.567c10.309,-21.464 36.104,-30.521 57.568,-20.212c3.367,1.617 6.429,3.616 9.159,5.919l13.991,-87.609c0.795,-4.977 5.039,-8.671 10.079,-8.772c5.04,-0.1 9.428,3.423 10.42,8.365c0,-0 3.768,18.635 14.271,36.734c6.532,11.255 15.664,22.491 28.634,27.99c5.293,2.244 7.769,8.363 5.525,13.656c-2.245,5.294 -8.364,7.769 -13.657,5.525c-17.236,-7.308 -29.841,-21.757 -38.521,-36.715c-0.845,-1.457 -1.654,-2.918 -2.426,-4.375l-13.325,83.439Zm527.469,547.974c0.014,0.406 0.02,0.815 0.02,1.224c0,20.045 -16.273,36.319 -36.318,36.319c-20.045,-0 -36.318,-16.274 -36.318,-36.319c-0,-20.044 16.273,-36.318 36.318,-36.318c4.336,-0 8.495,0.761 12.351,2.158l-5.229,-54.668c-0.548,-5.726 3.651,-10.813 9.378,-11.361l107.144,-10.248c5.727,-0.548 10.813,3.65 11.361,9.377l8.41,87.925c0.069,0.718 0.063,1.426 -0.011,2.116c0.039,0.691 0.059,1.387 0.059,2.088c-0,20.044 -16.274,36.318 -36.319,36.318c-20.044,0 -36.318,-16.274 -36.318,-36.318c-0,-20.045 16.274,-36.319 36.318,-36.319c4.385,0 8.589,0.779 12.482,2.205l-4.368,-45.662l-86.405,8.265l7.418,77.556c0.054,0.561 0.062,1.116 0.027,1.662Zm-497.545,-61.149c-27.585,12.616 -48.16,46.113 -54.408,87.194c-0.775,5.09 -5.151,8.851 -10.299,8.851c-5.148,-0 -9.524,-3.761 -10.298,-8.851c-6.249,-41.081 -26.824,-74.578 -54.408,-87.194c-3.707,-1.695 -6.084,-5.397 -6.084,-9.473c0,-4.076 2.377,-7.777 6.084,-9.473c27.584,-12.616 48.159,-46.113 54.408,-87.194c0.774,-5.09 5.15,-8.85 10.298,-8.85c5.148,-0 9.524,3.76 10.299,8.85c6.248,41.081 26.823,74.578 54.408,87.194c3.706,1.696 6.083,5.397 6.083,9.473c0,4.076 -2.377,7.778 -6.083,9.473Zm-24.509,-9.473c-16.775,-12.556 -30.837,-31.756 -40.198,-55.218c-9.361,23.463 -23.423,42.662 -40.197,55.218c16.774,12.556 30.837,31.756 40.197,55.22c9.361,-23.464 23.423,-42.664 40.198,-55.22Zm87.176,-146.354c-21.955,10.042 -38.193,36.789 -43.166,69.486c-0.774,5.09 -5.15,8.851 -10.298,8.851c-5.148,-0 -9.524,-3.761 -10.299,-8.851c-4.973,-32.697 -21.211,-59.444 -43.166,-69.486c-3.706,-1.695 -6.084,-5.396 -6.084,-9.472c0,-4.076 2.378,-7.778 6.084,-9.473c21.955,-10.042 38.193,-36.789 43.166,-69.486c0.775,-5.09 5.151,-8.851 10.299,-8.851c5.148,0 9.524,3.761 10.298,8.851c4.973,32.697 21.211,59.444 43.166,69.486c3.707,1.695 6.084,5.397 6.084,9.473c-0,4.076 -2.377,7.777 -6.084,9.472Zm-23.91,-9.472c-12.009,-9.604 -22.24,-23.356 -29.555,-39.944c-7.314,16.587 -17.545,30.34 -29.554,39.944c12.009,9.603 22.24,23.356 29.555,39.943c7.314,-16.587 17.545,-30.34 29.554,-39.943Zm559.869,-313.257c-27.916,12.768 -48.746,46.661 -55.07,88.236c-0.774,5.09 -5.15,8.85 -10.298,8.85c-5.148,0 -9.524,-3.76 -10.298,-8.85c-6.324,-41.575 -27.154,-75.468 -55.069,-88.236c-3.707,-1.695 -6.084,-5.397 -6.084,-9.473c-0,-4.076 2.377,-7.777 6.084,-9.473c27.915,-12.768 48.745,-46.661 55.069,-88.236c0.774,-5.089 5.15,-8.85 10.298,-8.85c5.148,0 9.524,3.761 10.298,8.85c6.324,41.575 27.154,75.468 55.07,88.236c3.706,1.696 6.084,5.397 6.084,9.473c-0,4.076 -2.378,7.778 -6.084,9.473Zm-24.54,-9.473c-17.06,-12.727 -31.351,-32.254 -40.828,-56.132c-9.476,23.878 -23.767,43.405 -40.828,56.133c17.061,12.726 31.352,32.253 40.829,56.13c9.476,-23.877 23.767,-43.404 40.827,-56.131Zm-112.77,-80.045c-14.789,6.764 -25.505,24.919 -28.856,46.944c-0.774,5.09 -5.15,8.851 -10.298,8.851c-5.148,-0 -9.524,-3.761 -10.298,-8.851c-3.35,-22.025 -14.066,-40.18 -28.856,-46.944c-3.706,-1.695 -6.084,-5.397 -6.084,-9.473c0,-4.076 2.378,-7.777 6.084,-9.472c14.79,-6.765 25.506,-24.919 28.856,-46.945c0.774,-5.089 5.15,-8.85 10.298,-8.85c5.148,0 9.524,3.761 10.298,8.85c3.351,22.026 14.067,40.18 28.856,46.945c3.707,1.695 6.084,5.396 6.084,9.472c0,4.076 -2.377,7.778 -6.084,9.473Zm-22.871,-9.473c-6.286,-5.668 -11.83,-12.914 -16.283,-21.365c-4.453,8.451 -9.996,15.697 -16.283,21.366c6.287,5.668 11.83,12.914 16.284,21.365c4.453,-8.451 9.996,-15.697 16.282,-21.366Z"/></svg>