<?xml version="1.0" encoding="UTF-8" standalone="no"?><!DOCTYPE svg PUBLIC "-//W3C//DTD SVG 1.1//EN" "http://www.w3.org/Graphics/SVG/1.1/DTD/svg11.dtd"><svg width="100%" height="100%" viewBox="0 0 934 934" version="1.1" xmlns="http://www.w3.org/2000/svg" xmlns:xlink="http://www.w3.org/1999/xlink" xml:space="preserve" xmlns:serif="http://www.serif.com/" style="fill-rule:evenodd;clip-rule:evenodd;stroke-linejoin:round;stroke-miterlimit:2;"><rect id="Shape-UserEmail" x="0.804" y="0.698" width="931.25" height="931.25" style="fill:none;"/><path d="M760.074,285.656l0,361.335c0,11.506 -9.327,20.833 -20.833,20.833l-545.625,0c-11.506,0 -20.833,-9.327 -20.833,-20.833l-0,-361.335c-0,-11.506 9.327,-20.834 20.833,-20.834l545.625,0c11.506,0 20.833,9.328 20.833,20.834Zm-77.349,20.833l-432.593,-0l157.535,115.716c0.128,0.092 0.256,0.186 0.383,0.281l58.379,42.881l58.378,-42.881c0.127,-0.095 0.255,-0.189 0.383,-0.281l157.535,-115.716Zm35.683,295.008l-0,-279.859l-158.302,116.279l158.302,163.58Zm-481.438,24.661l458.917,-0l-162.895,-168.325l-56.697,41.646c-5.871,4.313 -13.862,4.313 -19.733,0l-56.697,-41.646l-162.895,168.325Zm-22.521,-304.52l0,279.859l158.303,-163.58l-158.303,-116.279Z"/><path d="M398.006,435.788l-204.39,211.203" style="fill:none;"/><path d="M534.852,435.788l204.389,211.203" style="fill:none;"/></svg>