<?xml version="1.0" encoding="UTF-8" standalone="no"?><!DOCTYPE svg PUBLIC "-//W3C//DTD SVG 1.1//EN" "http://www.w3.org/Graphics/SVG/1.1/DTD/svg11.dtd"><svg width="100%" height="100%" viewBox="0 0 934 932" version="1.1" xmlns="http://www.w3.org/2000/svg" xmlns:xlink="http://www.w3.org/1999/xlink" xml:space="preserve" xmlns:serif="http://www.serif.com/" style="fill-rule:evenodd;clip-rule:evenodd;stroke-linejoin:round;stroke-miterlimit:2;"><rect id="Shape-NavClose" x="0.093" y="0" width="931.25" height="931.25" style="fill:none;"/><path d="M421.524,465.625l-202.2,-202.2c-12.196,-12.196 -12.196,-31.998 -0,-44.194c12.195,-12.196 31.998,-12.196 44.194,-0l202.2,202.2l202.2,-202.2c12.195,-12.196 31.998,-12.196 44.194,-0c12.196,12.196 12.196,31.998 -0,44.194l-202.2,202.2l202.2,202.2c12.196,12.196 12.196,31.998 -0,44.194c-12.196,12.196 -31.999,12.196 -44.194,0l-202.2,-202.2l-202.2,202.2c-12.196,12.196 -31.999,12.196 -44.194,0c-12.196,-12.196 -12.196,-31.998 -0,-44.194l202.2,-202.2Z"/></svg>