<?xml version="1.0" encoding="UTF-8" standalone="no"?><!DOCTYPE svg PUBLIC "-//W3C//DTD SVG 1.1//EN" "http://www.w3.org/Graphics/SVG/1.1/DTD/svg11.dtd"><svg width="100%" height="100%" viewBox="0 0 934 932" version="1.1" xmlns="http://www.w3.org/2000/svg" xmlns:xlink="http://www.w3.org/1999/xlink" xml:space="preserve" xmlns:serif="http://www.serif.com/" style="fill-rule:evenodd;clip-rule:evenodd;stroke-linejoin:round;stroke-miterlimit:2;"><rect id="Shape-BioHome" x="1.799" y="0" width="931.25" height="931.25" style="fill:none;"/><path d="M207.196,741.907l-152.372,-0c-20.018,-19.516 -24.408,-52.532 -8.232,-79.254c16.176,-26.722 48.351,-39.604 76.08,-32.828c7.712,-26.292 35.497,-46.426 67.849,-46.426c5.73,0 11.317,0.632 16.675,1.817l-0,-143.877l-90.036,0c-6.028,0 -11.435,-3.709 -13.605,-9.333c-2.17,-5.624 -0.656,-12.004 3.809,-16.053l349.226,-316.667c5.558,-5.04 14.034,-5.04 19.592,0l126.405,114.621l0,-63.75c0,-8.054 6.53,-14.583 14.584,-14.583l93.822,0c8.054,0 14.583,6.529 14.583,14.583l-0,175.272l99.831,90.524c4.466,4.049 5.98,10.429 3.81,16.053c-2.171,5.624 -7.578,9.333 -13.606,9.333l-90.035,0l-0,223.621c5.984,-1.501 12.276,-2.307 18.75,-2.307c32.352,-0 60.137,20.134 67.849,46.426c27.729,-6.777 59.904,6.106 76.08,32.828c16.176,26.722 11.786,59.738 -8.232,79.254l-271.395,-0c-13.094,-12.766 -19.501,-31.309 -17.839,-50.087l-369.01,-0c-8.054,-0 -14.583,-6.53 -14.583,-14.584l-0,-14.583Zm29.166,-314.313l0,314.313l34.251,-0l-0,-142.874c-0,-50.359 39.409,-91.027 87.671,-91.027c48.263,-0 87.672,40.668 87.672,91.027l-0,142.874l154.441,-0c16.176,-26.722 48.35,-39.605 76.08,-32.828c3.326,-11.338 10.384,-21.531 19.932,-29.458l0,-252.027l-230.023,-208.578l-230.024,208.578Zm253.061,135.53c0,-47.668 38.7,-86.368 86.368,-86.368c47.667,-0 86.368,38.7 86.368,86.368l-0,107.35c-0,5.753 -4.664,10.417 -10.417,10.417l-151.902,0c-5.753,0 -10.417,-4.664 -10.417,-10.417l0,-107.35Zm75.951,-64.71c-31.226,4.996 -55.117,32.085 -55.117,64.71l-0,8.392l55.117,0l0,-73.102Zm-55.117,93.935l-0,67.709l55.117,-0l0,-67.709l-55.117,0Zm75.951,67.709l55.117,-0l0,-67.709l-55.117,0l-0,67.709Zm55.117,-96.934c0,-32.625 -23.891,-59.714 -55.117,-64.71l-0,73.102l55.117,0l0,-8.392Zm-174.939,-253.519c35.604,0 64.51,28.906 64.51,64.51c-0,35.604 -28.906,64.51 -64.51,64.51c-35.604,0 -64.51,-28.906 -64.51,-64.51c-0,-35.604 28.906,-64.51 64.51,-64.51Zm-0,20.833c-24.106,0 -43.677,19.571 -43.677,43.677c-0,24.106 19.571,43.677 43.677,43.677c24.106,0 43.677,-19.571 43.677,-43.677c-0,-24.106 -19.571,-43.677 -43.677,-43.677Zm140.989,-72.818l-140.989,-127.845l-311.433,282.398l58.506,-0c1.445,-0 2.841,0.21 4.16,0.603c1.318,-0.393 2.715,-0.603 4.16,-0.603c0.189,-0 0.377,0.003 0.564,0.01l237.046,-214.946c3.97,-3.6 10.024,-3.6 13.994,0l237.046,214.946c0.187,-0.007 0.375,-0.01 0.564,-0.01c1.445,-0 2.841,0.21 4.16,0.603c1.318,-0.393 2.714,-0.603 4.16,-0.603l58.505,-0l-170.443,-154.553Zm-182.252,484.287l-0,-142.874c-0,-38.622 -29.825,-70.194 -66.839,-70.194c-37.013,0 -66.838,31.572 -66.838,70.194l0,142.874l133.677,-0Zm-36.594,-111.371l3.661,0.386l3.412,1.106l3.046,1.725l2.607,2.243l2.121,2.682l1.589,3.052l0.998,3.35l0.345,3.555l-0.345,3.554l-0.998,3.35l-1.589,3.052l-2.121,2.682l-2.607,2.244l-3.046,1.724l-3.412,1.106l-3.661,0.386l-3.66,-0.386l-3.412,-1.106l-3.046,-1.724l-2.607,-2.244l-2.122,-2.682l-1.588,-3.052l-0.998,-3.35l-0.345,-3.554l0.345,-3.555l0.998,-3.35l1.588,-3.052l2.122,-2.682l2.607,-2.243l3.046,-1.725l3.412,-1.106l3.66,-0.386Z"/></svg>