<?xml version="1.0" encoding="UTF-8" standalone="no"?><!DOCTYPE svg PUBLIC "-//W3C//DTD SVG 1.1//EN" "http://www.w3.org/Graphics/SVG/1.1/DTD/svg11.dtd"><svg width="100%" height="100%" viewBox="0 0 934 932" version="1.1" xmlns="http://www.w3.org/2000/svg" xmlns:xlink="http://www.w3.org/1999/xlink" xml:space="preserve" xmlns:serif="http://www.serif.com/" style="fill-rule:evenodd;clip-rule:evenodd;stroke-linejoin:round;stroke-miterlimit:2;"><rect id="Shape-AvGymRat" x="1.284" y="0" width="931.25" height="931.25" style="fill:none;"/><g><path d="M155.337,446.326c-0.761,-1.621 -1.491,-3.228 -2.19,-4.82c-41.925,-95.484 -37.374,-290.011 146.49,-295.042c101.056,-2.765 144.215,72.338 161.389,119.994c17.174,-47.656 60.333,-122.759 161.389,-119.994c183.864,5.031 188.415,199.558 146.49,295.042c-0.699,1.592 -1.43,3.199 -2.191,4.82l-204.347,0l-11.113,1.592l-10.036,4.532l-8.4,7.121l-6.206,9.355l-17.272,36.364l-78.328,-138.853l-6.371,-8.427l-8.217,-6.35l-9.585,-3.994l-10.476,-1.364l-10.464,1.455l-9.549,4.079l-8.161,6.421l-6.298,8.482l-43.982,79.587l-162.572,0Zm560.671,79.167c-91.121,118.851 -248.117,256.785 -248.117,256.785c-3.929,3.443 -9.801,3.443 -13.731,-0c0,-0 -156.995,-137.934 -248.117,-256.785l135.216,0l10.513,-1.421l9.599,-4.069l8.204,-6.434l6.329,-8.513l20.987,-37.977l80.987,143.568l6.592,8.647l8.524,6.431l9.933,3.919l10.816,1.114l10.711,-1.87l9.633,-4.605l8.052,-7.012l5.97,-9.088l39.278,-82.69l128.621,0Zm-574.206,-25c-8.049,0 -14.583,-6.534 -14.583,-14.583c-0,-8.049 6.534,-14.584 14.583,-14.584l190.854,0l51.116,-92.495c2.556,-4.626 7.415,-7.506 12.7,-7.529c5.285,-0.023 10.169,2.815 12.766,7.418l102.006,180.828l37.95,-79.895c2.416,-5.086 7.543,-8.327 13.173,-8.327l229.649,0c8.048,0 14.583,6.535 14.583,14.584c0,8.049 -6.535,14.583 -14.583,14.583l-220.431,0l-46.058,96.963c-2.336,4.919 -7.219,8.127 -12.661,8.318c-5.443,0.191 -10.538,-2.667 -13.213,-7.41l-102.986,-182.565l-42.644,77.165c-2.567,4.645 -7.456,7.529 -12.764,7.529l-199.457,0Z"/></g></svg>