<?xml version="1.0" encoding="UTF-8" standalone="no"?><!DOCTYPE svg PUBLIC "-//W3C//DTD SVG 1.1//EN" "http://www.w3.org/Graphics/SVG/1.1/DTD/svg11.dtd"><svg width="100%" height="100%" viewBox="0 0 934 932" version="1.1" xmlns="http://www.w3.org/2000/svg" xmlns:xlink="http://www.w3.org/1999/xlink" xml:space="preserve" xmlns:serif="http://www.serif.com/" style="fill-rule:evenodd;clip-rule:evenodd;stroke-linejoin:round;stroke-miterlimit:2;"><rect id="Shape-BioLikes" x="0.093" y="0" width="931.25" height="931.25" style="fill:none;"/><g><path d="M466.155,709.208l-0.874,0c-3.636,0 -7.141,-1.358 -9.827,-3.808c-0,0 -121.107,-110.55 -172.889,-178.608c-20.74,-27.258 -31.391,-68.175 -28.181,-107.561c4.945,-60.684 41.64,-117.184 120.082,-117.184c48.35,-0 76.42,31.197 91.252,56.564c14.832,-25.367 42.901,-56.564 91.251,-56.564c78.442,-0 115.138,56.5 120.083,117.184c3.209,39.386 -7.442,80.303 -28.181,107.561c-51.783,68.058 -172.889,178.608 -172.889,178.608c-2.687,2.45 -6.192,3.808 -9.827,3.808Zm-0.437,-34.014c29.027,-26.939 117.882,-110.785 159.941,-166.063c16.849,-22.144 24.93,-55.533 22.322,-87.531c-3.78,-46.392 -31.044,-90.387 -91.012,-90.387c-60.397,0 -77.142,66.798 -77.142,66.798c-1.679,6.418 -7.476,10.894 -14.109,10.894c-6.633,-0 -12.431,-4.476 -14.109,-10.894c-0,0 -16.745,-66.798 -77.143,-66.798c-59.968,0 -87.232,43.995 -91.012,90.387c-2.607,31.998 5.473,65.387 22.322,87.531c42.059,55.278 130.915,139.124 159.942,166.063Zm0.127,-110.251l-0.255,-0c-1.039,-0 -2.04,-0.388 -2.807,-1.088c-0,-0 -35.331,-32.251 -50.438,-52.105c-6.04,-7.939 -9.14,-19.855 -8.205,-31.325c1.439,-17.664 12.118,-34.113 34.951,-34.113c9.776,0 16.862,5.604 21.725,12.535c2.011,2.866 3.626,5.947 4.902,8.854c1.276,-2.907 2.891,-5.988 4.901,-8.854c4.864,-6.931 11.95,-12.535 21.725,-12.535c22.833,0 33.512,16.449 34.952,34.113c0.934,11.47 -2.166,23.386 -8.206,31.325c-15.106,19.854 -50.437,52.105 -50.437,52.105c-0.768,0.7 -1.769,1.088 -2.808,1.088Zm-279.065,-113.901c8.049,-0 14.584,6.534 14.584,14.583c-0,8.049 -6.535,14.583 -14.584,14.583l-65.571,0c-8.049,0 -14.583,-6.534 -14.583,-14.583c-0,-8.049 6.534,-14.583 14.583,-14.583l65.571,-0Zm623.446,-0c8.049,-0 14.584,6.534 14.584,14.583c-0,8.049 -6.535,14.583 -14.584,14.583l-65.571,0c-8.049,0 -14.583,-6.534 -14.583,-14.583c-0,-8.049 6.534,-14.583 14.583,-14.583l65.571,-0Zm-593.367,141.422c6.971,-4.024 15.897,-1.632 19.922,5.338c4.024,6.97 1.632,15.897 -5.338,19.921l-56.787,32.786c-6.97,4.024 -15.897,1.632 -19.921,-5.338c-4.025,-6.97 -1.633,-15.897 5.338,-19.921l56.786,-32.786Zm539.92,-311.723c6.971,-4.024 15.897,-1.632 19.922,5.338c4.024,6.97 1.632,15.897 -5.338,19.921l-56.787,32.786c-6.97,4.024 -15.897,1.632 -19.921,-5.338c-4.024,-6.97 -1.633,-15.897 5.338,-19.921l56.786,-32.786Zm-525.336,32.786c6.97,4.024 9.362,12.951 5.338,19.921c-4.025,6.97 -12.951,9.362 -19.922,5.338l-56.786,-32.786c-6.971,-4.024 -9.363,-12.951 -5.338,-19.921c4.024,-6.97 12.951,-9.362 19.921,-5.338l56.787,32.786Zm539.92,311.723c6.97,4.024 9.362,12.951 5.338,19.921c-4.025,6.97 -12.951,9.362 -19.922,5.338l-56.786,-32.786c-6.971,-4.024 -9.362,-12.951 -5.338,-19.921c4.024,-6.97 12.951,-9.362 19.921,-5.338l56.787,32.786Zm-457.743,74.65c4.024,-6.97 12.95,-9.362 19.921,-5.338c6.97,4.025 9.362,12.951 5.338,19.921l-32.786,56.787c-4.025,6.97 -12.951,9.362 -19.921,5.338c-6.971,-4.024 -9.363,-12.951 -5.338,-19.921l32.786,-56.787Zm311.723,-539.92c4.024,-6.97 12.95,-9.362 19.921,-5.338c6.97,4.024 9.362,12.951 5.338,19.921l-32.786,56.787c-4.025,6.97 -12.951,9.362 -19.921,5.338c-6.971,-4.025 -9.363,-12.951 -5.338,-19.921l32.786,-56.787Zm-286.464,56.787c4.024,6.97 1.632,15.896 -5.338,19.921c-6.971,4.024 -15.897,1.632 -19.921,-5.338l-32.786,-56.787c-4.025,-6.97 -1.633,-15.897 5.338,-19.921c6.97,-4.024 15.896,-1.632 19.921,5.338l32.786,56.787Zm311.723,539.92c4.024,6.97 1.632,15.897 -5.338,19.921c-6.971,4.024 -15.897,1.632 -19.921,-5.338l-32.786,-56.787c-4.025,-6.97 -1.633,-15.896 5.338,-19.921c6.97,-4.024 15.896,-1.632 19.921,5.338l32.786,56.787Z"/></g></svg>