<?xml version="1.0" encoding="UTF-8" standalone="no"?><!DOCTYPE svg PUBLIC "-//W3C//DTD SVG 1.1//EN" "http://www.w3.org/Graphics/SVG/1.1/DTD/svg11.dtd"><svg width="100%" height="100%" viewBox="0 0 934 934" version="1.1" xmlns="http://www.w3.org/2000/svg" xmlns:xlink="http://www.w3.org/1999/xlink" xml:space="preserve" xmlns:serif="http://www.serif.com/" style="fill-rule:evenodd;clip-rule:evenodd;stroke-linejoin:round;stroke-miterlimit:2;"><rect id="Shape-ExpResume" x="1.421" y="0.554" width="931.25" height="931.25" style="fill:none;"/><path d="M163.281,681.889l0,-625.214c0,-8.054 6.53,-14.583 14.584,-14.583l608.522,-0c8.055,-0 14.584,6.529 14.584,14.583l-0,787.5c-0,8.054 -6.529,14.584 -14.584,14.584l-444.889,-0l-0,-166.453c-0,-5.753 -4.664,-10.417 -10.417,-10.417l-167.8,-0Zm235.127,53.478l315.353,-0c5.749,-0 10.417,-4.668 10.417,-10.417c-0,-5.749 -4.668,-10.417 -10.417,-10.417l-315.353,0c-5.749,0 -10.417,4.668 -10.417,10.417c0,5.749 4.668,10.417 10.417,10.417Zm-96.301,-136.061c1.692,-0.775 2.778,-2.465 2.778,-4.327c0,-1.861 -1.086,-3.552 -2.778,-4.326c-10.028,-4.586 -17.444,-16.802 -19.715,-31.736c-0.354,-2.324 -2.353,-4.042 -4.704,-4.042c-2.351,0 -4.35,1.718 -4.703,4.042c-2.272,14.934 -9.688,27.15 -19.715,31.736c-1.693,0.774 -2.779,2.465 -2.779,4.326c0,1.862 1.086,3.552 2.779,4.327c10.027,4.586 17.443,16.802 19.715,31.735c0.353,2.325 2.352,4.042 4.703,4.042c2.351,0 4.35,-1.717 4.704,-4.042c2.271,-14.933 9.687,-27.149 19.715,-31.735Zm39.531,-482.171c-67.264,0 -121.875,54.611 -121.875,121.875c0,67.265 54.611,121.875 121.875,121.875c67.265,0 121.875,-54.61 121.875,-121.875c0,-67.264 -54.61,-121.875 -121.875,-121.875Zm-67.667,199.937c2.487,-24.314 12.114,-52.608 41.665,-63.742c-11.765,-8.914 -22.798,-23.035 -22.798,-38.919c-0,-26.934 21.866,-48.801 48.8,-48.801c26.934,-0 48.801,21.867 48.801,48.801c0,15.884 -11.034,30.005 -22.798,38.919c29.551,11.134 39.177,39.428 41.665,63.742c0,0 -13.851,24.623 -67.668,24.623c-44.048,0 -67.667,-24.623 -67.667,-24.623Zm28.136,152.263c1.692,-0.774 2.778,-2.465 2.778,-4.326c0,-1.862 -1.086,-3.553 -2.778,-4.327c-10.028,-4.586 -17.444,-16.802 -19.715,-31.736c-0.354,-2.324 -2.353,-4.042 -4.704,-4.042c-2.351,0 -4.35,1.718 -4.703,4.042c-2.272,14.934 -9.688,27.15 -19.715,31.736c-1.693,0.774 -2.779,2.465 -2.779,4.327c0,1.861 1.086,3.552 2.779,4.326c10.027,4.586 17.443,16.802 19.715,31.736c0.353,2.324 2.352,4.042 4.703,4.042c2.351,-0 4.35,-1.718 4.704,-4.042c2.271,-14.934 9.687,-27.15 19.715,-31.736Zm422.071,-246.797c-0,-5.753 -4.664,-10.417 -10.417,-10.417l-183.718,0c-5.753,0 -10.417,4.664 -10.417,10.417l0,66.667c0,5.753 4.664,10.416 10.417,10.416l183.718,0c5.753,0 10.417,-4.663 10.417,-10.416l-0,-66.667Zm-325.77,382.858l315.353,-0c5.749,-0 10.417,-4.668 10.417,-10.417c-0,-5.749 -4.668,-10.416 -10.417,-10.416l-315.353,-0c-5.749,-0 -10.417,4.667 -10.417,10.416c0,5.749 4.668,10.417 10.417,10.417Zm0,-129.971l315.353,0c5.749,0 10.417,-4.667 10.417,-10.416c-0,-5.749 -4.668,-10.417 -10.417,-10.417l-315.353,-0c-5.749,-0 -10.417,4.668 -10.417,10.417c0,5.749 4.668,10.416 10.417,10.416Zm-77.744,227.297l0,147.812l-147.811,-147.812l147.811,0Z"/></svg>