<?xml version="1.0" encoding="UTF-8" standalone="no"?><!DOCTYPE svg PUBLIC "-//W3C//DTD SVG 1.1//EN" "http://www.w3.org/Graphics/SVG/1.1/DTD/svg11.dtd"><svg width="100%" height="100%" viewBox="0 0 934 932" version="1.1" xmlns="http://www.w3.org/2000/svg" xmlns:xlink="http://www.w3.org/1999/xlink" xml:space="preserve" xmlns:serif="http://www.serif.com/" style="fill-rule:evenodd;clip-rule:evenodd;stroke-linejoin:round;stroke-miterlimit:2;"><rect id="Shape-AvAdventurer" x="0.093" y="0" width="931.25" height="931.25" style="fill:none;"/><path d="M239.933,747.189l2.516,11.54c1.216,5.576 -0.933,11.349 -5.498,14.773l-35.356,26.517c-2.664,1.998 -5.931,3.024 -9.259,2.908l-48.999,-1.711c-7.879,-0.275 -14.113,-6.762 -14.074,-14.646l0.229,-47.059c0.016,-3.131 1.038,-6.174 2.917,-8.679l26.516,-35.355c3.425,-4.566 9.198,-6.714 14.774,-5.498l11.54,2.516l14.187,-30.914c0.516,-1.124 1.228,-2.147 2.102,-3.021l25.42,-25.42l-34.75,-156.453c-0.695,-3.131 0.09,-6.409 2.13,-8.884c2.04,-2.475 5.107,-3.872 8.314,-3.788l18.156,0.479c3.597,0.095 6.889,2.039 8.71,5.142l42.669,72.726l-0.102,-49.075c-0.012,-5.904 3.536,-11.233 8.989,-13.498c5.452,-2.265 11.732,-1.019 15.906,3.156l23.57,23.57l58.831,-58.83l-1.218,-30.449c-0.163,-4.067 1.381,-8.017 4.259,-10.895l238.649,-238.648c1.953,-1.953 4.42,-3.311 7.114,-3.917l156.217,-35.107c4.841,-1.088 9.902,0.36 13.435,3.843c3.534,3.483 5.054,8.523 4.035,13.379l-33.166,158.157c-0.582,2.773 -1.958,5.316 -3.961,7.319l-238.649,238.648c-2.878,2.878 -6.828,4.423 -10.895,4.26l-30.448,-1.218l-58.83,58.83l23.57,23.57c4.175,4.175 5.421,10.455 3.156,15.907c-2.265,5.452 -7.594,9.001 -13.498,8.989l-49.076,-0.102l72.727,42.669c3.103,1.82 5.047,5.113 5.142,8.709l0.478,18.157c0.085,3.207 -1.312,6.273 -3.788,8.313c-2.475,2.04 -5.752,2.826 -8.883,2.131l-156.453,-34.75l-25.42,25.42c-0.874,0.874 -1.897,1.586 -3.021,2.101l-30.914,14.188Zm110.583,-116.187l53.375,0.111l-8.914,-8.914c-5.695,-5.695 -5.695,-14.929 -0,-20.624l73.657,-73.657c2.878,-2.878 6.828,-4.422 10.895,-4.259l30.448,1.218l231.064,-231.064l27.622,-131.715l-129.968,29.208l-231.144,231.144l1.218,30.449c0.163,4.067 -1.382,8.017 -4.26,10.895l-73.657,73.657c-5.695,5.695 -14.928,5.695 -20.624,-0l-8.913,-8.914l0.11,53.375l49.091,49.09Zm53.647,-117.468c4.065,-4.066 10.666,-4.066 14.731,-0c4.065,4.065 4.065,10.666 -0,14.731l-54.506,54.506c-4.065,4.065 -10.666,4.065 -14.732,0c-4.065,-4.065 -4.065,-10.666 0,-14.731l54.507,-54.506Zm27.98,-27.23l10.926,-56.473c0.395,-2.041 1.391,-3.917 2.861,-5.387l196.805,-196.805c1.267,-1.267 2.838,-2.185 4.562,-2.667l63.213,-17.666c3.564,-0.996 7.389,-0.026 10.048,2.547c2.659,2.574 3.753,6.365 2.875,9.959l-15.891,64.989c-0.453,1.851 -1.405,3.543 -2.753,4.891l-196.805,196.805c-1.559,1.559 -3.572,2.583 -5.749,2.925l-58.249,9.151c-3.353,0.527 -6.753,-0.614 -9.111,-3.056c-2.357,-2.442 -3.377,-5.88 -2.732,-9.213Zm23.273,-10.616l40.235,-6.32l192.346,-192.346l10.968,-44.858l-43.43,12.137l-192.618,192.619l-7.501,38.768Zm-166.813,201.651l8.075,-41.589l-41.59,8.075l33.515,33.514Zm-76.951,7.55l-7.877,17.165l26.598,26.599l17.166,-7.878l-35.887,-35.886Zm24.024,-31.014l-12.788,12.787l42.878,42.877l12.787,-12.787l-42.877,-42.877Zm-53.532,67.797l-5.506,-1.201l-18.003,24.004l-0.137,28.086l29.714,1.037l23.744,-17.808l-1.2,-5.507l-28.612,-28.611Z"/></svg>