<?xml version="1.0" encoding="UTF-8" standalone="no"?><!DOCTYPE svg PUBLIC "-//W3C//DTD SVG 1.1//EN" "http://www.w3.org/Graphics/SVG/1.1/DTD/svg11.dtd"><svg width="100%" height="100%" viewBox="0 0 934 932" version="1.1" xmlns="http://www.w3.org/2000/svg" xmlns:xlink="http://www.w3.org/1999/xlink" xml:space="preserve" xmlns:serif="http://www.serif.com/" style="fill-rule:evenodd;clip-rule:evenodd;stroke-linejoin:round;stroke-miterlimit:2;"><rect id="Shape-AvGardener" x="1.421" y="0" width="931.25" height="931.25" style="fill:none;"/><path d="M411.276,494.635c66.428,27.197 110,93.709 110,166.323c0,65.382 -20.717,106.324 -48.696,131.98c-57.978,53.164 -150.397,39.706 -169.259,36.272c-10.172,2.109 -42.711,7.823 -79.439,3.547c-30.577,-3.56 -63.857,-14.059 -90.217,-38.305c-27.949,-25.708 -48.68,-67.049 -48.68,-133.494c0,-72.319 43.22,-138.587 109.194,-165.991c0.456,-3.535 1.703,-7.191 3.872,-10.943c3.143,-5.436 10.717,-9.942 21.857,-11.422c14.1,-1.874 35.186,0.042 52.942,2.539c0.01,-15.148 -6.203,-21.361 -9.099,-26.814c-3.508,-6.607 -4.717,-12.683 -0.094,-21.407c5.267,-9.941 16.812,-15.289 28.919,-15.094c11.599,0.187 23.093,5.511 28.807,14.288c1.889,2.902 10.617,23.061 11.765,47.954c17.985,-2.952 39.393,-5.038 53.808,-2.219c11.295,2.209 18.985,7.617 22.152,15.031c1.134,2.654 1.842,5.242 2.168,7.755Zm-140.971,1.172c-13.389,-1.924 -28.826,-3.547 -41.05,-3.082c-4.402,0.167 -8.322,0.58 -11.403,1.486c-0.687,0.202 -1.639,0.632 -2.083,0.84c-2.423,5.014 1.733,8.879 6.041,12.35c11.672,9.406 29.903,14.858 29.903,14.858c3.473,1.056 6.146,3.844 7.054,7.359c0.908,3.515 -0.079,7.249 -2.605,9.856c-0,-0 -10.387,10.617 -15.064,21.969c-1.729,4.196 -3.519,8.675 0.162,11.577c6.789,5.352 15.786,2.93 24.134,-0.502c16.323,-6.712 30.735,-19.837 30.735,-19.837c3.811,-3.46 9.577,-3.617 13.571,-0.372c-0,0 16.462,13.418 33.824,20.254c5.026,1.979 10.111,3.434 14.805,3.506c3.055,0.047 5.922,-0.479 8.109,-2.507c4.419,-4.099 2.927,-9.292 0.631,-13.964c-5.595,-11.383 -17.503,-21.062 -17.503,-21.062c-3.032,-2.493 -4.405,-6.478 -3.551,-10.31c0.853,-3.831 3.787,-6.857 7.59,-7.828c0,-0 17.478,-4.385 29.323,-12.893c4.661,-3.349 9.331,-7.035 7.022,-12.44c-0.55,-1.287 -2.234,-1.489 -3.976,-2.026c-2.736,-0.844 -5.97,-1.31 -9.509,-1.556c-13.337,-0.927 -30.403,1.359 -44.382,3.889c-0.142,0.918 -0.297,1.838 -0.467,2.758c-1.044,5.654 -6.481,9.397 -12.134,8.354c-5.654,-1.043 -9.397,-6.481 -8.354,-12.134c5.068,-27.465 -5.256,-53.876 -7.205,-56.87c-2.246,-3.45 -7.123,-4.75 -11.682,-4.823c-4.06,-0.066 -8.409,0.684 -10.176,4.017c-0.72,1.36 0.202,2.14 0.849,3.211c1.187,1.966 2.598,4.087 3.984,6.583c5.141,9.257 10.434,23.16 3.961,51.157c-1.295,5.602 -6.894,9.098 -12.495,7.803c-4.636,-1.072 -7.83,-5.092 -8.059,-9.621Zm-137.946,234.127c2.38,4.94 5.225,9.709 8.463,14.273c3.326,4.688 9.834,5.794 14.523,2.468c4.689,-3.327 5.795,-9.834 2.468,-14.523c-2.555,-3.601 -4.806,-7.36 -6.684,-11.259c-2.495,-5.179 -8.726,-7.359 -13.905,-4.864c-5.18,2.495 -7.359,8.726 -4.865,13.905Zm38.397,43.786c28.13,20.082 63.27,29.478 87.646,23.252c5.57,-1.422 8.937,-7.1 7.515,-12.67c-1.423,-5.57 -7.101,-8.938 -12.671,-7.515c-19.671,5.024 -47.685,-3.817 -70.386,-20.023c-4.679,-3.34 -11.19,-2.253 -14.53,2.426c-3.341,4.679 -2.254,11.19 2.426,14.53Zm421.558,-111.435c-3.976,-6.462 -13.25,-19.68 -27.061,-28.252c-10.483,-6.506 -19.706,-15.402 -26.772,-26.497c-10.315,-16.197 -14.448,-34.577 -13.01,-52.362c-20.707,-4.936 -39.592,-17.611 -51.918,-36.967c-15.186,-23.845 -16.97,-52.424 -7.312,-76.869c-8.905,-6.218 -16.754,-14.254 -22.947,-23.979c-23.543,-36.969 -14.869,-85.31 18.693,-112.003c-19.123,-38.383 -6.538,-85.856 30.431,-109.398c13.919,-8.864 29.451,-13.163 44.832,-13.285c-0.246,-28.316 13.663,-56.132 39.287,-72.451c39.524,-25.17 92.047,-13.516 117.217,26.008c0.621,0.975 1.22,1.958 1.794,2.948c31.175,-3.459 63.094,10.552 81.067,38.774c11.293,17.734 15.177,38.086 12.452,57.408c18.662,5.703 35.461,17.829 46.755,35.564c22.499,35.331 15.574,81.049 -14.381,108.33l0.353,0.55c25.17,39.524 13.516,92.047 -26.008,117.217c-2.003,1.275 -4.039,2.456 -6.104,3.543c12.82,36.399 -0.566,78.172 -34.501,99.783c-9.755,6.212 -25.487,10.508 -41.701,16.642c-18.136,6.86 -37.674,16.382 -43.224,40.49c-1.44,48.047 -4.944,96.982 -14.877,143.394l-1.916,4.926l-4.134,4.779l-5.792,3.308c-1.962,0.773 -4.445,1.463 -7.358,1.975c-18.226,3.2 -61.224,-0.585 -61.224,-0.585c-4.498,-0.418 -8.548,-2.896 -10.967,-6.711c-2.419,-3.815 -2.934,-8.535 -1.394,-12.782c11.238,-30.989 21.526,-78.619 29.72,-133.498Zm71.818,-50.198c7.899,-7.26 17.103,-12.787 26.714,-17.245c18.069,-8.38 37.687,-12.104 48.668,-19.097c25.444,-16.203 33.297,-49.673 18.008,-75.43c-2.298,-3.87 -2.68,-8.585 -1.034,-12.775c1.645,-4.189 5.133,-7.384 9.45,-8.657c4.893,-1.443 9.666,-3.588 14.181,-6.464c25.946,-16.523 33.596,-51.002 17.073,-76.948c-2.042,-3.208 -4.358,-6.137 -6.9,-8.775c-3.069,-3.187 -4.526,-7.595 -3.96,-11.983c0.566,-4.388 3.093,-8.283 6.871,-10.586c0.316,-0.193 0.631,-0.389 0.944,-0.588c25.946,-16.523 33.596,-51.002 17.073,-76.948c-9.505,-14.926 -24.955,-23.792 -41.301,-25.493c-4.427,-0.46 -8.401,-2.917 -10.792,-6.671c-2.391,-3.755 -2.936,-8.395 -1.481,-12.601c5.372,-15.532 3.872,-33.282 -5.633,-48.207c-13.304,-20.892 -38.25,-29.923 -61.01,-24.024c-7.082,1.836 -14.428,-1.86 -17.175,-8.64c-1.257,-3.102 -2.814,-6.134 -4.676,-9.058c-16.523,-25.946 -51.002,-33.596 -76.948,-17.073c-20.796,13.244 -29.84,38.022 -24.103,60.698c1.247,4.932 -0.165,10.157 -3.728,13.789c-3.563,3.632 -8.761,5.144 -13.716,3.991c-14.084,-3.278 -29.424,-1.115 -42.572,7.258c-25.946,16.523 -33.596,51.002 -17.073,76.948c0.767,1.206 1.574,2.372 2.416,3.498c2.545,3.403 3.48,7.746 2.56,11.894c-0.921,4.148 -3.605,7.689 -7.35,9.696c-1.24,0.664 -2.464,1.38 -3.67,2.148c-25.945,16.523 -33.596,51.002 -17.073,76.948c5.949,9.342 14.225,16.314 23.594,20.635c3.792,1.749 6.652,5.039 7.856,9.037c1.205,3.998 0.637,8.32 -1.558,11.872c-10.893,17.628 -11.501,40.667 0.368,59.304c10.191,16.004 27.217,25.042 44.855,25.749c4.459,0.179 8.591,2.39 11.214,6.001c2.623,3.611 3.448,8.224 2.239,12.521c-4.149,14.747 -2.249,31.132 6.62,45.058c4.633,7.276 10.676,13.116 17.551,17.383c8.977,5.572 16.551,12.581 22.604,19.338c1.219,-10.032 2.361,-20.232 3.419,-30.551c-0.191,-0.322 -0.367,-0.658 -0.526,-1.007c-13.298,-29.164 -16.158,-76.118 -72.675,-115.433c-4.719,-3.283 -5.886,-9.78 -2.603,-14.499c3.283,-4.72 9.781,-5.886 14.5,-2.603c39.796,27.683 55.487,58.539 65.568,85.392c0.9,-12.04 1.68,-24.136 2.331,-36.212c-0.364,-0.739 -0.646,-1.532 -0.831,-2.372c-9.614,-43.67 -31.684,-85.493 -93.901,-112.16c-5.284,-2.264 -7.735,-8.393 -5.47,-13.677c2.264,-5.285 8.393,-7.736 13.677,-5.471c46.155,19.782 72.724,46.974 88.607,77.283c0.402,-21.031 0.355,-41.639 -0.191,-61.408c-5.46,-14.329 -22.736,-50.984 -82.252,-74.271c-5.354,-2.095 -8,-8.142 -5.905,-13.496c2.095,-5.354 8.142,-8 13.496,-5.905c35.98,14.078 58.388,32.587 72.468,49.385c-0.648,-8.758 -1.421,-17.249 -2.323,-25.426c-4.289,-38.889 -11.315,-70.484 -22.301,-89.304c-2.898,-4.965 -1.22,-11.349 3.745,-14.248c4.965,-2.898 11.349,-1.22 14.248,3.745c12.016,20.586 20.324,54.987 25.016,97.523c10.154,92.053 4.237,223.24 -10.358,330.03c1.123,2.721 1.361,5.621 0.825,8.351c-7.188,49.111 -16.105,92.88 -25.813,125.273c7.502,0.396 16.205,0.682 23.88,0.488c2.79,-0.07 6.006,-0.367 8.511,-0.644c8.488,-42.926 11.471,-87.91 12.76,-132.078l0.001,-0.025c0.025,-0.853 0.124,-1.7 0.297,-2.535l0.006,-0.03c0.359,-1.728 0.761,-3.411 1.205,-5.05c0.926,-38.612 1.053,-76.742 2.597,-112.399c-0.071,-0.858 -0.036,-1.737 0.116,-2.62c0.973,-21.41 2.48,-41.904 5.005,-61.048c0.009,-0.312 0.033,-0.626 0.071,-0.942c2.704,-22.521 1.498,-72.464 13.303,-116.675c8.504,-31.846 23.785,-60.622 50.385,-76.327c4.951,-2.923 11.343,-1.277 14.266,3.674c2.923,4.95 1.277,11.343 -3.674,14.266c-22.024,13.003 -33.808,37.394 -40.849,63.761c-1.712,6.415 -3.139,12.953 -4.336,19.51c14.065,-21.899 33.636,-37.678 60.718,-45.567c5.519,-1.608 11.306,1.568 12.914,7.088c1.608,5.52 -1.568,11.306 -7.088,12.914c-35.496,10.34 -54.672,37.692 -65.702,74.822c-3.937,13.253 -6.855,27.701 -9.038,43.095c-0.069,0.662 -0.14,1.303 -0.215,1.923c-0.049,0.415 -0.123,0.822 -0.219,1.219c-0.45,3.345 -0.866,6.733 -1.251,10.162c21.285,-25.148 54.129,-44.814 93.784,-56.585c5.511,-1.636 11.314,1.511 12.95,7.022c1.636,5.512 -1.511,11.314 -7.022,12.95c-53.665,15.93 -94.299,46.981 -103.471,88.321c-1.033,24.307 -1.365,49.819 -1.761,75.868Z"/></svg>