<?xml version="1.0" encoding="UTF-8" standalone="no"?><!DOCTYPE svg PUBLIC "-//W3C//DTD SVG 1.1//EN" "http://www.w3.org/Graphics/SVG/1.1/DTD/svg11.dtd"><svg width="100%" height="100%" viewBox="0 0 934 932" version="1.1" xmlns="http://www.w3.org/2000/svg" xmlns:xlink="http://www.w3.org/1999/xlink" xml:space="preserve" xmlns:serif="http://www.serif.com/" style="fill-rule:evenodd;clip-rule:evenodd;stroke-linejoin:round;stroke-miterlimit:2;"><rect id="Shape-BioOrigin" x="1.421" y="0" width="931.25" height="931.25" style="fill:none;"/><path d="M461.158,654.013c-28.977,-1.092 -53.607,-9.016 -66.537,-19.259c-10.429,-8.262 -31.389,-13.082 -55.274,-13.082c-23.885,-0 -44.844,4.82 -55.274,13.082c-13.594,10.769 -40.419,23.635 -99.409,19.349c-8.028,-0.583 -14.071,-7.574 -13.488,-15.601c0.583,-8.028 7.574,-14.072 15.602,-13.489c46.751,3.397 68.41,-4.586 79.184,-13.121c13.937,-11.041 41.468,-19.387 73.385,-19.387c31.917,-0 59.448,8.346 73.385,19.387c8.799,6.971 25.093,11.491 44.315,12.735c-0.972,-16.052 -1.727,-30.991 -2.291,-44.935c-8.259,-24.626 -22.173,-42.233 -38.733,-56.982c-10.65,3.904 -32.17,10.801 -55.494,12.603c-24.02,1.856 -49.63,-1.896 -68.819,-17.365c-47.896,-38.611 -63.244,-114.902 -61.726,-143.079c0.473,-8.782 3.041,-14.625 5.183,-17.33l3.74,-3.501l3.823,-1.932l3.792,-0.823l3.792,0.099c71.898,10.417 119.282,23.733 143.285,40.831c56.995,40.599 42.336,102.832 38.199,116.642c7.879,7.167 15.194,14.94 21.702,23.666c-0.727,-65.4 3.61,-104.176 8.715,-137.181c-26.271,-3.931 -55.537,-17.423 -73.62,-46.141c-14.361,-22.807 -21.991,-55.66 -13.723,-101.995c4.21,-23.598 14.894,-45.726 28.651,-70.353c18.962,-33.944 43.933,-73.19 62.906,-130.655l1.614,-3.398l1.905,-2.4l3.302,-2.546l3.722,-1.494l4.193,-0.447l4.224,0.742l4.165,2.02l4.526,3.819c11.171,11.237 46.037,60.632 71.964,113.167c17.786,36.04 31.127,73.593 31.127,101.614c0,53.115 -15.45,85.555 -34.483,105.661c-23.487,24.811 -53.23,31.325 -71.07,33.05c-0.026,0.238 -0.058,0.477 -0.095,0.716c-5.674,35.97 -10.467,78.297 -8.468,156.406c6.706,-10.095 14.563,-18.685 23.265,-26.224c-10.876,-31.074 -12.937,-104.243 71.625,-132.641c47.368,-15.907 116.262,-5.538 161.148,-9.731l4.497,0.13l4.741,1.438l4.13,2.695l2.955,3.313l1.794,3.19l1.427,4.378c0.56,2.541 0.826,5.761 0.583,9.581c-1.685,26.482 -33.31,99.163 -90.847,138.222c-40.997,27.831 -93.568,23.631 -125.82,11.207c-10.379,-3.998 -18.724,-9.037 -24.566,-14.076c-14.911,13.692 -26.688,31.326 -33.062,56.216c0.382,7.454 0.815,15.177 1.303,23.182c16.027,-1.806 29.385,-6.02 37.053,-12.094c13.937,-11.041 41.468,-19.387 73.385,-19.387c31.917,-0 59.448,8.346 73.385,19.387c10.885,8.623 36.234,13.083 78.321,13.083c8.049,0 14.583,6.535 14.583,14.583c0,8.049 -6.534,14.584 -14.583,14.584c-52.134,-0 -82.949,-8.706 -96.432,-19.388c-10.43,-8.262 -31.389,-13.082 -55.274,-13.082c-23.885,-0 -44.844,4.82 -55.274,13.082c-11.847,9.386 -33.518,16.824 -59.355,18.844c-0.373,7.529 -0.71,18.433 -0.611,32.357c0.941,1.24 1.617,2.71 1.928,4.342c-0,0 0.733,3.839 2.17,7.644c0.518,1.372 0.864,2.917 1.718,3.65c14.767,12.689 55.154,64.409 82.201,86.77c4.431,3.664 5.054,10.235 1.391,14.666c-3.664,4.431 -10.235,5.054 -14.666,1.391c-22.714,-18.778 -54.826,-58.173 -73.378,-77.98c0.764,13.05 1.903,27.431 3.554,43.022c0.201,0.573 0.352,1.16 0.451,1.755c1.628,2.573 4.805,7.451 8.321,12.097c14.221,18.793 41.63,49.508 75.029,68.014c5.029,2.787 6.85,9.131 4.063,14.16c-2.786,5.029 -9.131,6.85 -14.16,4.063c-27.676,-15.335 -51.534,-38.355 -68.29,-57.712c3.28,21.968 7.543,45.666 13.057,70.856c1.23,5.616 -2.332,11.174 -7.948,12.403c-5.616,1.23 -11.174,-2.331 -12.403,-7.948c-6.228,-28.45 -10.894,-55.049 -14.367,-79.47c-12.773,21.695 -32.1,50.277 -53.287,66.661c-4.547,3.517 -11.095,2.681 -14.612,-1.867c-3.517,-4.548 -2.68,-11.096 1.867,-14.613c29.704,-22.971 55.118,-72.303 61.387,-85.092l0.129,-1.51c-1.423,-13.49 -2.473,-26.102 -3.232,-37.762c-5.45,8.571 -11.628,16.47 -18.148,24.06c-14.017,16.318 -29.671,31.124 -42.091,48.921c-3.29,4.715 -9.789,5.871 -14.504,2.581c-4.714,-3.29 -5.871,-9.789 -2.58,-14.504c12.822,-18.372 28.901,-33.726 43.372,-50.573c13.239,-15.413 25.104,-32.147 30.801,-54.542c0.294,-1.155 0.771,-2.216 1.391,-3.159c-0.099,-13.565 0.204,-24.421 0.568,-32.266Zm-54.612,-165.298c2.679,-17.694 2.115,-49.964 -29.869,-72.747c-20.329,-14.481 -59.454,-24.784 -117.588,-33.782c0.257,7.194 1.444,16.46 3.695,26.747c6.201,28.345 20.305,64.602 47.232,86.308c13.383,10.789 31.513,12.287 48.266,10.992c10.737,-0.83 21.025,-2.926 29.64,-5.2c-27.739,-19.369 -57.885,-37.193 -82.274,-64.959c-3.794,-4.32 -3.367,-10.907 0.952,-14.701c4.32,-3.794 10.907,-3.367 14.701,0.952c25.197,28.686 56.952,46.129 85.245,66.39Zm85.909,-122.115c13.502,-1.711 33.235,-7.009 49.052,-23.717c15.346,-16.212 26.497,-42.783 26.497,-85.61c0,-24.536 -12.541,-57.149 -28.115,-88.706c-17.648,-35.76 -39.52,-70.101 -54.051,-90.04c-18.261,47.409 -39.825,82.068 -56.852,112.548c-12.009,21.498 -21.726,40.653 -25.401,61.252c-6.58,36.876 -1.738,63.18 9.692,81.331c14.112,22.412 37.84,31.61 57.963,33.433c6.732,-39.148 12.516,-79.792 7.576,-167.923c-0.321,-5.74 4.078,-10.661 9.818,-10.983c5.74,-0.322 10.661,4.077 10.983,9.817c4.918,87.751 -0.527,129.505 -7.162,168.598Zm50.085,159.92c5.786,3.366 13.473,6.4 22.282,8.68c25.197,6.521 59.56,6.869 87.169,-11.874c37.076,-25.169 61.885,-66.427 72.631,-95.047c1.702,-4.535 3.016,-9.709 3.933,-13.94c-42.524,1.344 -100.348,-6.21 -141.325,7.551c-55.647,18.688 -61.174,63.328 -56.095,87.169c1.174,-0.712 2.356,-1.414 3.545,-2.109c34.066,-19.889 74.845,-32.298 108.277,-58.131c4.549,-3.515 11.096,-2.675 14.612,1.874c3.515,4.549 2.675,11.097 -1.874,14.612c-27.602,21.328 -59.952,33.981 -89.813,48.653c-8.027,3.943 -15.867,8.045 -23.342,12.562Z"/></svg>