<?xml version="1.0" encoding="UTF-8" standalone="no"?><!DOCTYPE svg PUBLIC "-//W3C//DTD SVG 1.1//EN" "http://www.w3.org/Graphics/SVG/1.1/DTD/svg11.dtd"><svg width="100%" height="100%" viewBox="0 0 934 932" version="1.1" xmlns="http://www.w3.org/2000/svg" xmlns:xlink="http://www.w3.org/1999/xlink" xml:space="preserve" xmlns:serif="http://www.serif.com/" style="fill-rule:evenodd;clip-rule:evenodd;stroke-linejoin:round;stroke-miterlimit:2;"><rect id="Shape-AvChef" x="1.799" y="0" width="931.25" height="931.25" style="fill:none;"/><path d="M284.378,554.41c-6.449,0.93 -13.045,1.412 -19.753,1.412c-75.279,0 -136.327,-60.603 -136.327,-135.163c-0,-74.559 61.048,-135.162 136.327,-135.162c12.45,-0 24.511,1.659 35.971,4.765c4.418,-87.456 77.441,-157.183 166.828,-157.183c89.386,0 162.409,69.727 166.827,157.183c11.46,-3.106 23.521,-4.765 35.971,-4.765c75.279,-0 136.327,60.603 136.327,135.162c0,74.56 -61.048,135.163 -136.327,135.163c-6.708,0 -13.304,-0.482 -19.753,-1.412l-13.992,146.96c-0.01,0.106 -0.02,0.213 -0.031,0.319l-7.929,83.28c-0.713,7.485 -6.999,13.202 -14.518,13.202l-293.151,-0c-7.519,-0 -13.805,-5.717 -14.518,-13.202l-7.929,-83.28c-0.011,-0.106 -0.021,-0.213 -0.031,-0.319l-13.992,-146.96Zm17.555,-233.138c-11.622,-4.275 -24.192,-6.608 -37.308,-6.608c-59.105,-0 -107.16,47.456 -107.16,105.995c-0,58.54 48.055,105.996 107.16,105.996c14.119,0 27.606,-2.703 39.957,-7.622c8.076,-3.217 15.666,-7.38 22.63,-12.35c6.552,-4.676 15.667,-3.152 20.342,3.399c4.676,6.552 3.152,15.667 -3.399,20.342c-8.857,6.321 -18.51,11.614 -28.78,15.705c-0.796,0.317 -1.595,0.627 -2.398,0.929l13.186,138.491l61.951,0l-21.886,-81.68c-1.488,-5.553 1.813,-11.269 7.366,-12.757c5.553,-1.488 11.27,1.812 12.758,7.365l23.273,86.859c0.019,0.071 0.038,0.142 0.055,0.213l47.327,0l-0,-99.368c-0,-5.749 4.667,-10.416 10.417,-10.416c5.749,-0 10.416,4.667 10.416,10.416l0,99.368l47.327,0c0.017,-0.071 0.036,-0.142 0.055,-0.213l23.273,-86.859c1.488,-5.553 7.205,-8.853 12.758,-7.365c5.553,1.488 8.854,7.204 7.366,12.757l-21.886,81.68l61.951,0l13.186,-138.491c-0.803,-0.302 -1.602,-0.612 -2.398,-0.929c-10.27,-4.091 -19.923,-9.384 -28.78,-15.705c-6.551,-4.675 -8.075,-13.79 -3.399,-20.342c4.675,-6.551 13.79,-8.075 20.342,-3.399c6.964,4.97 14.554,9.133 22.63,12.35c12.351,4.919 25.838,7.622 39.957,7.622c59.105,0 107.161,-47.456 107.161,-105.996c-0,-58.539 -48.056,-105.995 -107.161,-105.995c-13.116,-0 -25.686,2.333 -37.307,6.608c-3.781,27.392 -14.331,52.662 -29.926,74.099c-4.735,6.508 -13.863,7.948 -20.372,3.213c-6.508,-4.734 -7.948,-13.863 -3.214,-20.372c16.291,-22.392 25.893,-49.871 25.893,-79.553c-0,-75.327 -61.817,-136.413 -137.872,-136.413c-76.056,0 -137.872,61.086 -137.872,136.413c-0,29.682 9.601,57.161 25.892,79.553c4.734,6.509 3.294,15.638 -3.214,20.372c-6.509,4.735 -15.637,3.295 -20.372,-3.213c-15.595,-21.437 -26.145,-46.707 -29.925,-74.099Zm27.007,393.444l5.168,54.288l266.631,-0l5.168,-54.288l-276.967,-0Zm417.737,-290.211c-0,5.749 -4.668,10.417 -10.417,10.417c-5.749,-0 -10.417,-4.668 -10.417,-10.417c0,-37.318 -30.64,-67.566 -68.319,-67.566c-5.749,-0 -10.417,-4.668 -10.417,-10.417c0,-5.749 4.668,-10.416 10.417,-10.416c49.232,-0 89.153,39.638 89.153,88.399Zm-537.673,-8.797c-0,5.749 -4.668,10.416 -10.417,10.416c-5.749,0 -10.417,-4.667 -10.417,-10.416c0,-43.906 35.941,-79.602 80.271,-79.602c5.749,-0 10.416,4.667 10.416,10.416c0,5.749 -4.667,10.417 -10.416,10.417c-32.777,-0 -59.437,26.305 -59.437,58.769Z"/></svg>