<?xml version="1.0" encoding="UTF-8" standalone="no"?><!DOCTYPE svg PUBLIC "-//W3C//DTD SVG 1.1//EN" "http://www.w3.org/Graphics/SVG/1.1/DTD/svg11.dtd"><svg width="100%" height="100%" viewBox="0 0 934 934" version="1.1" xmlns="http://www.w3.org/2000/svg" xmlns:xlink="http://www.w3.org/1999/xlink" xml:space="preserve" xmlns:serif="http://www.serif.com/" style="fill-rule:evenodd;clip-rule:evenodd;stroke-linejoin:round;stroke-miterlimit:2;"><rect id="Shape-UserFriend" x="1.936" y="0.698" width="931.25" height="931.25" style="fill:none;"/><path d="M582.697,564.965c-11.478,-0.024 -20.789,-9.35 -20.789,-20.833c-0,-7.426 3.893,-13.95 9.748,-17.639c3.212,-2.024 7.013,-3.195 11.085,-3.195l80.208,0l0,-80.208c0,-11.498 9.335,-20.833 20.834,-20.833c11.498,-0 20.833,9.335 20.833,20.833l-0,80.208l80.208,0c11.499,0 20.834,9.335 20.834,20.834c-0,11.498 -9.335,20.833 -20.834,20.833l-80.208,-0l-0,80.208c-0,11.499 -9.335,20.834 -20.833,20.834c-11.499,-0 -20.834,-9.335 -20.834,-20.834l0,-80.208l-80.208,-0l-0.044,-0Zm47.524,86.187c-1.284,32.242 -5.45,54.196 -5.45,54.196c-1.869,9.829 -10.461,16.941 -20.467,16.941l-375.57,0c-10.005,0 -18.597,-7.112 -20.466,-16.941c-0,-0 -16.182,-85.282 5.409,-166.53c12.856,-48.378 38.788,-95.076 87.366,-123.745c-22.857,-26.621 -36.672,-61.228 -36.672,-99.034c-0,-83.973 68.175,-152.148 152.148,-152.148c83.974,-0 152.149,68.175 152.149,152.148c-0,37.806 -13.815,72.413 -36.672,99.034c31.799,18.767 53.895,45.26 68.971,74.892l-18.226,-0l-10.886,1.102l-10.213,3.173l-4.672,2.536c-15.021,-24.11 -36.875,-44.561 -68.602,-56.515c-7.099,-2.675 -12.183,-8.997 -13.272,-16.505c-1.089,-7.508 1.989,-15.014 8.036,-19.596c26.639,-20.183 43.869,-52.154 43.869,-88.121c0,-60.976 -49.505,-110.482 -110.482,-110.482c-60.976,0 -110.481,49.506 -110.481,110.482c-0,35.967 17.23,67.938 43.869,88.121c6.047,4.582 9.125,12.088 8.036,19.596c-1.089,7.508 -6.173,13.83 -13.272,16.505c-53.302,20.083 -78.739,64.151 -90.725,109.258c-13.671,51.445 -10.275,104.709 -7.188,131.104l339.523,-0c2.104,-17.989 4.351,-48.457 1.242,-82.325l41.728,0c0.133,1.649 0.254,3.289 0.365,4.921l-0,41.954l0.605,5.979Z"/></svg>