<?xml version="1.0" encoding="UTF-8" standalone="no"?><!DOCTYPE svg PUBLIC "-//W3C//DTD SVG 1.1//EN" "http://www.w3.org/Graphics/SVG/1.1/DTD/svg11.dtd"><svg width="100%" height="100%" viewBox="0 0 934 932" version="1.1" xmlns="http://www.w3.org/2000/svg" xmlns:xlink="http://www.w3.org/1999/xlink" xml:space="preserve" xmlns:serif="http://www.serif.com/" style="fill-rule:evenodd;clip-rule:evenodd;stroke-linejoin:round;stroke-miterlimit:2;"><rect id="Shape-AvProgrammer" x="1.421" y="0" width="931.25" height="931.25" style="fill:none;"/><path d="M207.747,641.68c-1.105,-1.087 -2.977,-2.961 -5.397,-5.504c-20.453,-20.801 -84.975,-87.012 -95.275,-104.852c-13.694,-23.719 -5.151,-48.386 16.896,-70.522c26.194,-26.3 72.056,-49.431 101.81,-62.881c78.944,-35.686 126.917,-34.03 153.762,-25.337c10.241,3.316 17.91,7.795 23.505,12.266c8.286,-10.407 22.719,-25.102 45.602,-38.314c22.883,-13.212 42.827,-18.363 55.982,-20.336c-1.075,-7.08 -1.119,-15.962 1.13,-26.489c5.893,-27.594 28.447,-69.969 98.823,-120.493c26.525,-19.042 69.488,-47.195 105.362,-56.73c30.194,-8.025 55.828,-3.089 69.522,20.629c10.3,17.841 35.379,106.823 43.167,134.937c0.992,3.367 1.679,5.926 2.068,7.426c20.289,70.816 -5.004,145.784 -72.097,184.521c-80.652,46.564 -179.02,15.913 -225.844,-65.188c-10.177,-17.627 -15.913,-34.163 -17.957,-49.719c-10.106,1.543 -26.483,5.679 -45.573,16.701c-19.09,11.022 -30.86,23.136 -37.25,31.116c12.451,9.549 23.903,22.785 34.08,40.412c46.823,81.1 24.184,181.615 -56.468,228.18c-67.093,38.736 -144.664,23.157 -195.848,-29.823Zm413.356,-399.451c-46.524,26.861 -81.307,56.356 -83.827,95.362c-1.035,16.029 3.647,33.413 14.746,52.639c38.609,66.872 119.499,92.907 186.001,54.512c66.442,-38.36 81.972,-120.145 43.399,-186.956c-14.661,-25.394 -31.827,-39.651 -51.681,-44.711c-31.635,-8.064 -68.398,5.922 -108.638,29.154Zm16.239,53.075l69.759,-40.275c4.337,-2.504 9.604,-2.806 14.198,-0.815c12.163,5.271 23.334,14.988 32.574,30.992c26.82,46.454 13.637,103.974 -32.56,130.646c-46.264,26.711 -101.31,8.673 -128.17,-37.849c-9.195,-15.927 -12.17,-30.301 -10.886,-43.277c0.502,-5.072 3.418,-9.592 7.832,-12.14l17.148,-9.9l3.96,41.437c0.831,8.691 8.56,15.071 17.25,14.241c8.69,-0.831 15.071,-8.56 14.24,-17.25l-5.277,-55.218c-0.019,-0.199 -0.041,-0.396 -0.068,-0.592Zm-365.25,148.427c-40.241,23.233 -70.734,48.077 -79.569,79.507c-5.544,19.723 -1.78,41.718 12.881,67.112c38.574,66.811 117.167,94.253 183.608,55.894c66.503,-38.396 84.401,-121.465 45.792,-188.338c-11.1,-19.225 -23.814,-31.972 -38.214,-39.09c-35.04,-17.321 -77.975,-1.945 -124.498,24.915Zm13.232,54.811l69.759,-40.275c4.337,-2.504 9.603,-2.806 14.198,-0.815c12.163,5.271 23.334,14.988 32.573,30.992c26.821,46.454 13.638,103.974 -32.559,130.646c-46.264,26.711 -101.311,8.673 -128.17,-37.849c-9.196,-15.927 -12.17,-30.301 -10.886,-43.277c0.502,-5.072 3.417,-9.592 7.831,-12.14l17.148,-9.9l3.96,41.437c0.831,8.691 8.56,15.071 17.25,14.241c8.691,-0.831 15.071,-8.56 14.241,-17.25l-5.277,-55.218c-0.019,-0.199 -0.042,-0.396 -0.068,-0.592Zm414.365,45.92c73.92,0 133.934,60.014 133.934,133.935c0,73.921 -60.014,133.935 -133.934,133.935c-73.921,-0 -133.935,-60.014 -133.935,-133.935c-0,-73.921 60.014,-133.935 133.935,-133.935Zm-51.96,155.793l-21.858,-21.858l21.858,-21.858c4.065,-4.065 4.065,-10.666 -0,-14.732c-4.066,-4.065 -10.667,-4.065 -14.732,0l-29.224,29.224c-4.068,4.068 -4.068,10.664 0,14.732l29.224,29.223c4.065,4.066 10.666,4.066 14.732,0c4.065,-4.065 4.065,-10.666 -0,-14.731Zm118.651,14.731l29.224,-29.223c4.068,-4.068 4.068,-10.664 -0,-14.732l-29.224,-29.224c-4.065,-4.065 -10.666,-4.065 -14.731,0c-4.066,4.066 -4.066,10.667 -0,14.732l21.858,21.858l-21.858,21.858c-4.066,4.065 -4.066,10.666 -0,14.731c4.065,4.066 10.666,4.066 14.731,0Zm-66.606,-69.068l-19.229,58.447c-1.797,5.462 1.178,11.354 6.639,13.151c5.462,1.796 11.354,-1.179 13.151,-6.64l19.229,-58.447c1.796,-5.462 -1.179,-11.354 -6.64,-13.151c-5.461,-1.796 -11.354,1.179 -13.15,6.64Z"/></svg>