<?xml version="1.0" encoding="UTF-8" standalone="no"?><!DOCTYPE svg PUBLIC "-//W3C//DTD SVG 1.1//EN" "http://www.w3.org/Graphics/SVG/1.1/DTD/svg11.dtd"><svg width="100%" height="100%" viewBox="0 0 934 934" version="1.1" xmlns="http://www.w3.org/2000/svg" xmlns:xlink="http://www.w3.org/1999/xlink" xml:space="preserve" xmlns:serif="http://www.serif.com/" style="fill-rule:evenodd;clip-rule:evenodd;stroke-linejoin:round;stroke-miterlimit:2;"><rect id="Shape-UserGithub" x="1.181" y="0.698" width="931.25" height="931.25" style="fill:none;"/><path d="M361.136,688.243c-10.692,0.621 -19.458,0.587 -29.957,-0.129c-0.018,-0.001 -5.813,-0.652 -12.507,-1.884c-11.042,-2.03 -30.168,-6.379 -47.611,-18.924c-13.453,-9.676 -21.618,-23.262 -23.038,-25.624c-12.937,-21.527 -13.693,-42.135 -32.295,-57.366c-8.124,-6.651 -17.337,-10.305 -18.246,-11.04c-3.372,-2.729 -3.752,-6.439 -3.818,-7.079c-0.459,-4.492 1.955,-7.427 2.376,-7.939c2.747,-3.339 6.439,-3.747 7.079,-3.818c2.919,-0.323 11.596,1.772 12.587,2.011c43.789,10.571 54.948,44.123 72.663,59.481c4.18,3.624 14.51,11.881 45.035,10.871c0.33,-0.011 8.799,0.102 17.558,-0.16c7.304,-0.217 14.069,-0.753 18.061,-1.112c2.284,-11.388 4.786,-20.809 7.291,-28.57c-69.149,-7.849 -112.683,-33.47 -139.204,-65.939c-35.91,-43.965 -41.309,-101.999 -33.216,-152.765c6.431,-40.342 21.514,-75.683 34.668,-95.648c-11.287,-28.49 -16.331,-75.759 5.587,-120.989c2.363,-4.878 6.534,-8.642 11.628,-10.494c25.105,-9.131 53.353,-4.597 78.129,5.273c21.835,8.699 40.716,21.207 51.124,28.785c16.441,-3.656 50.812,-10.041 90.339,-10.041c39.526,-0 73.897,6.385 90.337,10.041c10.409,-7.578 29.29,-20.086 51.126,-28.785c24.775,-9.87 53.023,-14.404 78.129,-5.273c5.093,1.852 9.264,5.616 11.628,10.494c21.917,45.23 16.874,92.499 5.586,120.988c13.154,19.966 28.238,55.307 34.669,95.649c8.092,50.766 2.693,108.8 -33.217,152.765c-26.503,32.447 -69.998,58.056 -139.068,65.923c7.176,22.13 14.295,57.769 16.276,114.059c0.512,14.536 0.702,37.312 0.475,54.981c-0.147,11.497 -9.601,20.712 -21.099,20.564c-11.497,-0.147 -20.711,-9.602 -20.564,-21.099c0.219,-17.026 0.04,-38.973 -0.453,-52.981c-3.094,-87.899 -20.714,-118.434 -21.662,-120.017c-3.325,-3.623 -5.386,-8.43 -5.477,-13.727c-0.194,-11.365 8.758,-20.788 20.119,-21.177c70.997,-2.425 114.586,-22.77 139.183,-52.884c28.091,-34.392 30.67,-80.136 24.339,-119.848c-6.31,-39.583 -21.243,-73.805 -32.448,-84.802c-6.914,-6.785 -8.239,-17.44 -3.197,-25.712c9.867,-16.187 16.214,-51.207 2.717,-86.061c-13.428,-2.131 -27.677,1.751 -40.516,6.866c-26.979,10.748 -48.41,28.639 -48.41,28.639c-5.245,4.385 -12.307,5.917 -18.897,4.101c-0,0 -40.292,-11.037 -89.576,-11.037c-49.285,-0 -89.577,11.037 -89.577,11.037c-6.59,1.816 -13.652,0.284 -18.896,-4.101c-0,-0 -21.432,-17.891 -48.411,-28.639c-12.839,-5.115 -27.087,-8.997 -40.517,-6.865c-13.496,34.854 -7.148,69.873 2.718,86.06c5.042,8.272 3.717,18.927 -3.197,25.712c-11.204,10.997 -26.138,45.219 -32.448,84.802c-6.331,39.712 -3.751,85.456 24.34,119.848c24.596,30.114 68.185,50.459 139.182,52.884c11.361,0.389 20.313,9.812 20.119,21.177c-0.09,5.286 -2.143,10.085 -5.457,13.706c-1.084,1.876 -23.724,42.567 -22.135,166.396l0.002,0.267l-0,6.624c-0,11.498 -9.335,20.833 -20.834,20.833c-11.498,-0 -20.833,-9.335 -20.833,-20.833l-0,-6.495c-0.345,-27.143 0.334,-50.648 1.711,-70.98Z"/></svg>